:SAMPLES-PER-SECOND 30
:FULLY-SPECIFIED
:DEGREES
291
root  -55.1744 34.9677 29.3742 -173.676 40.2483 177.88
RightUpLeg  -6.71962 -12.8658 -4.22733
RightLeg  10.9296 -4.95924 -0.628196
RightFoot  0.594647 -0.039194 0.121822
RightToes  -22.145 -0.0902508 -0.191162
Spine  -1.95893 2.47061 -1.41335
Spine1  -3.889 4.78984 -2.04556
HEad  -60.7584 -7.52763 -8.67053
LeftShoulder1  -1.94126e-019 -3.10601e-018 -2.51263e-017
LeftArm  -6.08263 23.6885 -78.7011
LeftForeArm  31.2763 -15.3804 -2.52871
LeftHand  -0.288317 -2.06406 4.6811
RightShoulder  -4.96962e-017 0 -2.36833e-017
RightArm  11.2026 4.97251 78.46
RightForeArm  60.9935 49.667 8.85055
RightHand  -1.60278 4.79956 -18.3968
LeftUpLeg  -5.36585 -6.47217 -1.92688
LeftLeg  0.991269 10.5619 -0.493655
LeftFoot  7.5821 -0.0899689 1.56296
LeftToes  -16.4061 1.48321e-006 1.01846e-007
292
root  -55.1308 34.9821 29.3852 -173.82 40.1504 177.814
RightUpLeg  -6.52869 -13.0899 -4.24587
RightLeg  10.8408 -4.8474 -0.606419
RightFoot  0.650621 -0.0395616 0.116753
RightToes  -21.9808 -0.0894866 -0.189713
Spine  -1.93419 2.49518 -1.42019
Spine1  -3.84112 4.8392 -2.06253
HEad  -61.3533 -7.73741 -8.14777
LeftShoulder1  -1.94126e-019 -3.10601e-018 -2.51263e-017
LeftArm  -5.79378 23.197 -78.7764
LeftForeArm  31.9965 -15.6783 -2.58006
LeftHand  -0.286778 -1.57157 4.9463
RightShoulder  -4.96962e-017 0 -2.36833e-017
RightArm  14.2323 4.72629 78.024
RightForeArm  63.225 51.5134 9.44322
RightHand  -1.64076 3.54621 -21.3407
LeftUpLeg  -5.41522 -7.04286 -1.91309
LeftLeg  1.31541 11.0589 -0.454348
LeftFoot  7.60401 -0.0946115 1.63413
LeftToes  -16.5416 1.48321e-006 1.01846e-007
293
root  -55.0853 34.9899 29.3945 -173.775 39.7768 177.823
RightUpLeg  -6.42013 -13.2855 -4.15123
RightLeg  10.73 -5.07022 -0.624281
RightFoot  0.727442 -0.0395867 0.106898
RightToes  -22.066 -0.0888084 -0.188321
Spine  -1.90667 2.41571 -1.4547
Spine1  -3.78173 4.67367 -2.128
HEad  -61.9582 -7.89471 -7.62541
LeftShoulder1  -1.94126e-019 -3.10601e-018 -2.51263e-017
LeftArm  -6.26887 23.1536 -78.6108
LeftForeArm  31.1143 -16.8301 -2.76148
LeftHand  -0.334153 -1.76481 5.59884
RightShoulder  -4.96962e-017 0 -2.36833e-017
RightArm  13.7356 3.29924 78.1003
RightForeArm  61.5565 54.7021 10.943
RightHand  -1.36749 1.96223 -21.572
LeftUpLeg  -5.67456 -7.09635 -1.83742
LeftLeg  1.77834 10.7737 -0.35619
LeftFoot  7.46601 -0.090367 1.56714
LeftToes  -16.4542 1.48321e-006 1.01846e-007
294
root  -55.0428 35.0055 29.4417 -173.698 39.0389 177.771
RightUpLeg  -6.36595 -13.4211 -4.02605
RightLeg  10.6553 -5.64551 -0.687456
RightFoot  0.754179 -0.0398845 0.101057
RightToes  -21.6613 -0.0882347 -0.186999
Spine  -1.90756 2.174 -1.4609
Spine1  -3.78436 4.19852 -2.13487
HEad  -62.4623 -8.10093 -7.19776
LeftShoulder1  -1.94126e-019 -3.10601e-018 -2.51263e-017
LeftArm  -7.07608 23.3287 -78.5829
LeftForeArm  29.3506 -17.9882 -2.91553
LeftHand  -0.334301 -1.35515 5.90771
RightShoulder  -4.96962e-017 0 -2.36833e-017
RightArm  11.4524 1.88478 78.7754
RightForeArm  58.7136 56.4407 12.0073
RightHand  -1.54161 2.79477 -21.8574
LeftUpLeg  -6.07056 -7.8161 -1.72154
LeftLeg  2.14802 10.7963 -0.287669
LeftFoot  7.60974 -0.0923985 1.59775
LeftToes  -16.547 1.48321e-006 1.01846e-007
295
root  -54.9876 35.005 29.4918 -173.536 38.6094 177.855
RightUpLeg  -6.33648 -13.4978 -3.7902
RightLeg  10.5253 -5.99631 -0.716245
RightFoot  0.675271 -0.0408831 0.105347
RightToes  -21.119 -0.0877844 -0.185758
Spine  -1.91746 1.99016 -1.40341
Spine1  -3.80073 3.83379 -2.01444
HEad  -62.5758 -7.33347 -6.7252
LeftShoulder1  -1.94126e-019 -3.10601e-018 -2.51263e-017
LeftArm  -7.70714 23.5295 -78.6988
LeftForeArm  28.2272 -18.889 -3.04593
LeftHand  -0.329491 -1.26701 5.89904
RightShoulder  -4.96962e-017 0 -2.36833e-017
RightArm  9.48574 1.08259 79.3934
RightForeArm  59.4761 57.46 12.5061
RightHand  -1.53402 2.64673 -22.1373
LeftUpLeg  -6.32393 -8.00852 -1.50658
LeftLeg  2.35986 10.5876 -0.243262
LeftFoot  7.56126 -0.0900281 1.56002
LeftToes  -16.48 1.48321e-006 1.01846e-007
296
root  -54.9285 35.0076 29.5465 -173.457 38.4776 177.85
RightUpLeg  -6.31729 -13.5856 -3.64103
RightLeg  10.3556 -6.03096 -0.702268
RightFoot  0.636574 -0.0419862 0.111257
RightToes  -21.0563 -0.0874097 -0.184602
Spine  -1.92488 1.9129 -1.35659
Spine1  -3.8143 3.68142 -1.91856
HEad  -63.4723 -8.4197 -6.66435
LeftShoulder1  -1.94126e-019 -3.10601e-018 -2.51263e-017
LeftArm  -7.57349 23.5637 -78.89
LeftForeArm  28.1349 -19.2326 -3.08767
LeftHand  -0.325281 -1.2722 5.81671
RightShoulder  -4.96962e-017 0 -2.36833e-017
RightArm  8.51941 0.899825 79.5192
RightForeArm  60.0954 58.0901 12.8182
RightHand  -1.60189 2.92365 -22.3461
LeftUpLeg  -6.34097 -8.29825 -1.3514
LeftLeg  2.16934 10.7277 -0.281898
LeftFoot  7.77347 -0.0938848 1.61922
LeftToes  -16.7464 1.48321e-006 1.01846e-007
297
root  -54.8729 35.0105 29.6116 -173.364 38.6376 177.899
RightUpLeg  -6.35078 -13.6192 -3.4585
RightLeg  10.1829 -5.84153 -0.662459
RightFoot  0.628685 -0.0427578 0.11256
RightToes  -20.8738 -0.0870503 -0.183556
Spine  -1.95393 1.90158 -1.31598
Spine1  -3.87242 3.66107 -1.83931
HEad  -63.3631 -8.02477 -6.23444
LeftShoulder1  -1.94126e-019 -3.10601e-018 -2.51263e-017
LeftArm  -6.87563 23.5835 -79.0284
LeftForeArm  28.5435 -19.2424 -3.08614
LeftHand  -0.329962 -1.41551 5.78596
RightShoulder  -4.96962e-017 0 -2.36833e-017
RightArm  8.3254 1.0715 79.4401
RightForeArm  59.5388 58.3976 13.04
RightHand  -1.50366 3.14668 -20.4918
LeftUpLeg  -6.2921 -8.13636 -1.18271
LeftLeg  1.91993 10.7609 -0.32933
LeftFoot  7.92178 -0.096043 1.65219
LeftToes  -16.9563 1.48321e-006 1.01846e-007
298
root  -54.811 35.0136 29.6873 -173.217 38.9599 178.018
RightUpLeg  -6.45776 -13.421 -3.19215
RightLeg  10.0592 -5.75216 -0.639788
RightFoot  0.640071 -0.0434261 0.112524
RightToes  -20.7153 -0.086706 -0.182661
Spine  -1.99233 1.9042 -1.28613
Spine1  -3.94875 3.6668 -1.78229
HEad  -63.0722 -6.98936 -5.5512
LeftShoulder1  -1.94126e-019 -3.10601e-018 -2.51263e-017
LeftArm  -6.20068 23.5945 -79.0826
LeftForeArm  29.1104 -19.0449 -3.05929
LeftHand  -0.325873 -1.64282 5.54922
RightShoulder  -4.96962e-017 0 -2.36833e-017
RightArm  8.6779 1.62985 79.5995
RightForeArm  58.6182 57.7906 12.7563
RightHand  -1.31119 3.18276 -17.8686
LeftUpLeg  -6.31911 -7.72733 -0.944541
LeftLeg  1.82109 10.6607 -0.344587
LeftFoot  8.0047 -0.0961427 1.65336
LeftToes  -17.1669 1.48321e-006 1.01846e-007
299
root  -54.7667 35.0153 29.7532 -173.124 39.2026 178.092
RightUpLeg  -6.54727 -13.19 -2.99687
RightLeg  9.98737 -5.71698 -0.628637
RightFoot  0.644369 -0.0440689 0.112264
RightToes  -20.6415 -0.0863764 -0.18196
Spine  -2.00104 1.86604 -1.26694
Spine1  -3.96522 3.58983 -1.7424
HEad  -63.2093 -6.66717 -5.12533
LeftShoulder1  -1.94126e-019 -3.10601e-018 -2.51263e-017
LeftArm  -5.63419 23.6076 -79.1763
LeftForeArm  29.2447 -18.9087 -3.03037
LeftHand  -0.301818 -1.29874 5.38716
RightShoulder  -4.96962e-017 0 -2.36833e-017
RightArm  9.45369 2.6381 80.0982
RightForeArm  58.596 55.9362 11.7498
RightHand  -1.20069 3.26133 -16.2594
LeftUpLeg  -6.45651 -7.64512 -0.766574
LeftLeg  1.97529 10.8329 -0.321098
LeftFoot  8.00725 -0.09776 1.67839
LeftToes  -17.501 1.48321e-006 1.01846e-007
300
root  -54.729 35.0168 29.8025 -173.135 39.2913 178.086
RightUpLeg  -6.58707 -13.2412 -2.90553
RightLeg  10.01 -5.59829 -0.617858
RightFoot  0.514076 -0.0457286 0.126681
RightToes  -20.2694 -0.0860613 -0.181392
Spine  -1.9622 1.85876 -1.25608
Spine1  -3.88995 3.58056 -1.7203
HEad  -63.8737 -7.45895 -4.90973
LeftShoulder1  -1.94126e-019 -3.10601e-018 -2.51263e-017
LeftArm  -5.67795 23.3944 -79.3945
LeftForeArm  29.4749 -18.4214 -2.96302
LeftHand  -0.298563 -1.23506 5.37636
RightShoulder  -4.96962e-017 0 -2.36833e-017
RightArm  10.8714 3.38561 80.2974
RightForeArm  58.5216 54.2675 10.931
RightHand  -1.11542 2.65086 -16.234
LeftUpLeg  -6.60559 -8.7177 -0.609492
LeftLeg  2.27308 11.8715 -0.290171
LeftFoot  7.98152 -0.10709 1.82364
LeftToes  -17.897 1.48321e-006 1.01846e-007
301
root  -54.6732 35.0129 29.8566 -173.054 39.5469 178.216
RightUpLeg  -6.55785 -12.9448 -2.67821
RightLeg  9.84723 -5.63377 -0.605581
RightFoot  0.507143 -0.0464195 0.127407
RightToes  -20.1062 -0.0857602 -0.180868
Spine  -1.94711 2.06134 -1.30131
Spine1  -3.86442 3.98859 -1.82116
HEad  -63.9805 -7.88362 -4.23055
LeftShoulder1  -1.94126e-019 -3.10601e-018 -2.51263e-017
LeftArm  -5.69502 23.1295 -79.3929
LeftForeArm  29.755 -18.3537 -2.98997
LeftHand  -0.301768 -1.33204 5.34839
RightShoulder  -4.96962e-017 0 -2.36833e-017
RightArm  13.2219 3.67143 79.3158
RightForeArm  56.5668 54.3943 11.1239
RightHand  -0.799271 0.741498 -15.1998
LeftUpLeg  -6.70582 -7.59155 -0.464452
LeftLeg  2.5262 11.1214 -0.223281
LeftFoot  7.74163 -0.0970689 1.66835
LeftToes  -17.7582 1.48321e-006 1.01846e-007
302
root  -54.6313 35.0166 29.8986 -172.956 39.6163 178.31
RightUpLeg  -6.46598 -12.8272 -2.49787
RightLeg  9.54106 -5.68009 -0.579885
RightFoot  0.582453 -0.0464939 0.119481
RightToes  -19.9109 -0.085473 -0.180385
Spine  -1.98229 2.20233 -1.36102
Spine1  -3.93654 4.26656 -1.94677
HEad  -63.6073 -8.2687 -3.36554
LeftShoulder1  -1.94126e-019 -3.10601e-018 -2.51263e-017
LeftArm  -5.88261 23.0266 -79.3846
LeftForeArm  29.8117 -18.4205 -3.01981
LeftHand  -0.301075 -1.21272 5.43699
RightShoulder  -4.96962e-017 0 -2.36833e-017
RightArm  16.1439 4.47759 76.7066
RightForeArm  54.646 56.093 12.1198
RightHand  -0.667205 1.073 -12.0969
LeftUpLeg  -6.85813 -7.33384 -0.317702
LeftLeg  2.75508 10.9968 -0.177173
LeftFoot  7.63713 -0.094579 1.63055
LeftToes  -17.8143 1.48321e-006 1.01846e-007
